<?xml version="1.0" standalone="no"?>
<!DOCTYPE svg PUBLIC "-//W3C//DTD SVG 20010904//EN"
 "http://www.w3.org/TR/2001/REC-SVG-20010904/DTD/svg10.dtd">
<svg version="1.0" xmlns="http://www.w3.org/2000/svg"
 width="513.000000pt" height="513.000000pt" viewBox="0 0 513.000000 513.000000"
 preserveAspectRatio="xMidYMid meet">
<metadata>
Created by potrace 1.14, written by Peter Selinger 2001-2017
</metadata>
<g transform="translate(0.000000,513.000000) scale(0.100000,-0.100000)"
fill="#000000" stroke="none">
<path d="M361 5119 c-118 -20 -247 -112 -304 -218 -61 -110 -57 37 -57 -2336
0 -1930 2 -2177 16 -2230 32 -124 115 -225 233 -283 l75 -37 2235 0 2236 0 67
32 c119 56 200 149 239 274 18 59 19 133 19 2242 0 1817 -3 2191 -14 2233 -30
115 -114 222 -215 278 -108 58 7 56 -2331 55 -1214 -1 -2168 -5 -2199 -10z
m3328 -573 l201 -295 -180 -305 -180 -306 26 -51 c70 -139 137 -367 170 -579
25 -164 30 -579 10 -760 -45 -384 -152 -697 -331 -966 -212 -319 -480 -495
-835 -549 -75 -12 -213 -15 -647 -15 l-553 0 0 1846 0 1845 583 -3 c639 -5
666 -7 867 -70 111 -35 201 -81 286 -148 l62 -49 135 302 c75 166 145 323 157
350 12 26 22 47 24 47 2 0 94 -132 205 -294z"/>
<path d="M2040 2575 l0 -1155 183 0 c211 0 274 12 381 68 251 131 420 520 442
1016 21 463 -129 940 -348 1105 -126 95 -229 121 -480 121 l-178 0 0 -1155z"/>
</g>
</svg>
